<svg width="16" height="10" viewBox="0 0 16 10" fill="none" xmlns="http://www.w3.org/2000/svg">
<path d="M14.6667 1.33333H10V0H14.6667V1.33333ZM15.8173 8C15.5227 8.86467 14.4647 10 12.4167 10C10.3673 10 8.70733 8.84733 8.70733 6.21667C8.70733 3.61 10.2573 2.27 12.3513 2.27C14.406 2.27 15.6607 3.458 15.9347 5.22067C15.9867 5.558 16.0073 6.01267 15.998 6.64733H10.6467C10.7333 8.788 12.9687 8.85533 13.7053 8H15.8173ZM10.6933 5.33333H14.0033C13.9333 4.302 13.246 3.854 12.352 3.854C11.3747 3.854 10.834 4.366 10.6933 5.33333ZM4.31067 9.992H0V0.0139999H4.63533C8.286 0.0679999 8.35533 3.64333 6.44867 4.618C8.756 5.458 8.83333 9.992 4.31067 9.992ZM2 4H4.38933C6.06133 4 6.32667 2 4.18133 2H2V4ZM4.26067 6H2V8.01067H4.22733C6.264 8.01067 6.13933 6 4.26067 6Z" fill="white"/>
</svg>
