<svg width="17" height="16" viewBox="0 0 17 16" fill="none" xmlns="http://www.w3.org/2000/svg">
<path d="M8.5 0C4.08133 0 0.5 3.582 0.5 8C0.5 12.418 4.08133 16 8.5 16C12.9187 16 16.5 12.418 16.5 8C16.5 3.582 12.9187 0 8.5 0ZM15.09 7.62733C13.3733 7.346 11.7947 7.33067 10.3547 7.57867C10.192 7.20333 10.0233 6.82867 9.84333 6.45867C11.3833 5.792 12.62 4.88667 13.542 3.73733C14.442 4.8 15.0067 6.15 15.09 7.62733ZM12.5287 2.77267C11.7253 3.80867 10.6167 4.628 9.20467 5.226C8.52733 3.98533 7.75267 2.77533 6.87933 1.60067C7.39867 1.46933 7.94 1.39133 8.5 1.39133C10.0167 1.39133 11.412 1.91067 12.5287 2.77267ZM5.518 2.11067C6.40533 3.272 7.192 4.46933 7.876 5.698C6.256 6.17467 4.322 6.41933 2.08667 6.43467C2.548 4.54467 3.82067 2.97267 5.518 2.11067ZM1.89133 8L1.9 7.82933C4.466 7.826 6.67933 7.53067 8.53333 6.948C8.68867 7.26467 8.83733 7.58267 8.98 7.90267C6.72667 8.60733 4.87 10.0507 3.422 12.2227C2.46733 11.0767 1.89133 9.60467 1.89133 8ZM4.444 13.2067C5.75667 11.148 7.432 9.808 9.50933 9.18867C10.128 10.802 10.582 12.462 10.8713 14.162C8.63867 15.0227 6.236 14.606 4.444 13.2067ZM12.168 13.4933C11.876 11.9247 11.448 10.3913 10.888 8.89533C12.1387 8.71867 13.5147 8.76467 15.0207 9.026C14.7293 10.8833 13.6687 12.4873 12.168 13.4933Z" fill="white"/>
</svg>
