<svg width="32" height="32" viewBox="0 0 32 32" fill="none" xmlns="http://www.w3.org/2000/svg">
<path d="M16 0C7.164 0 0 7.12366 0 15.9099C0 24.6962 7.164 31.8198 16 31.8198C24.836 31.8198 32 24.6962 32 15.9099C32 7.12366 24.836 0 16 0ZM13.3333 21.2132H10.6667V13.2583H13.3333V21.2132ZM12 12.077C11.1907 12.077 10.5333 11.4193 10.5333 10.6066C10.5333 9.7952 11.1893 9.13627 12 9.13627C12.8107 9.13627 13.4667 9.7952 13.4667 10.6066C13.4667 11.4193 12.8093 12.077 12 12.077ZM22.6667 21.2132H20.0027V17.42C20.0027 14.9261 17.3333 15.137 17.3333 17.42V21.2132H14.6667V13.2583H17.3333V14.7074C18.496 12.5649 22.6667 12.4058 22.6667 16.7598V21.2132Z" fill="#361D9D"/>
</svg>
